<?xml version="1.0" encoding="UTF-8"?><svg id="Layer_1" xmlns="http://www.w3.org/2000/svg" viewBox="0 0 243.38 52.98"><defs><style>.cls-1{fill:#e75300;}.cls-1,.cls-2{stroke-width:0px;}.cls-2{fill:#fff;}</style></defs><circle class="cls-2" cx="43.63" cy="29.66" r="2.78"/><circle class="cls-2" cx="26.23" cy="46.19" r="4.52"/><circle class="cls-2" cx="9.52" cy="28.96" r="4.52"/><circle class="cls-2" cx="26" cy="11.93" r="2.9"/><circle class="cls-2" cx="38.65" cy="16.92" r="2.55"/><circle class="cls-2" cx="13.78" cy="17.46" r="3.68"/><circle class="cls-2" cx="14.34" cy="41.13" r="4.81"/><circle class="cls-2" cx="37.94" cy="41.82" r="3.68"/><polygon class="cls-1" points="52.4 1.95 54.44 7.11 59.6 9.15 54.44 11.19 52.4 16.36 50.36 11.19 45.19 9.15 50.36 7.11 52.4 1.95"/><path class="cls-2" d="M76.83,45.49c-3.36,0-6.11-1.2-8.26-3.36-3.1-3.1-3.01-6.29-3.01-11.58s-.09-8.8,3.01-11.9c2.15-2.15,4.9-3.36,8.26-3.36,5.72,0,10.19,3.27,11.27,9.68h-6.06c-.6-2.45-2.15-4.34-5.16-4.34-1.63,0-2.97.6-3.83,1.59-1.16,1.29-1.51,2.44-1.51,8.33s.34,6.72,1.51,8.01c.86.99,2.19,1.59,3.83,1.59,3.01,0,4.56-1.89,5.16-4.34h6.06c-1.07,6.41-5.59,9.68-11.27,9.68Z"/><path class="cls-2" d="M172.58,43.47c-1.25,1.25-3.27,2.02-5.46,2.02-2.37,0-4.04-.65-5.59-2.37v2.11h-5.42V15.87h5.59v8.93c1.46-1.63,3.14-2.24,5.42-2.24s4.21.77,5.46,2.02c2.24,2.24,2.28,6.06,2.28,9.42s-.04,7.23-2.28,9.46ZM165.48,27.6c-3.36,0-3.79,2.75-3.79,6.41s.43,6.45,3.79,6.45,3.79-2.8,3.79-6.45-.43-6.41-3.79-6.41Z"/><path class="cls-2" d="M194.05,20.89v-5.19h5.72v5.19h-5.72ZM194.14,45.23v-22.41h5.59v22.41h-5.59Z"/><path class="cls-2" d="M211.9,45.23c-4.56,0-6.5-3.23-6.5-6.41v-11.71h-2.37v-4.26h2.37v-7.15h5.59v7.15h3.96v4.26h-3.96v11.37c0,1.29.6,2.02,1.94,2.02h2.02v4.73h-3.05Z"/><path class="cls-2" d="M107.26,35.77h2.86c.03-.56.05-1.14.05-1.76,0-4.04-.53-6.58-2.61-8.69-1.42-1.46-3.77-2.75-7.18-2.75s-5.71,1.29-7.13,2.75c-2.08,2.11-2.61,4.64-2.61,8.69s.53,6.62,2.61,8.73c1.42,1.46,3.72,2.75,7.13,2.75s5.76-1.29,7.18-2.75c1.11-1.12,1.77-2.38,2.15-3.92h-5.66c-.19.34-.41.65-.69.92-.73.68-1.7,1.04-2.97,1.04s-2.19-.36-2.92-1.04c-.98-.91-1.31-2.3-1.42-3.97h11.23ZM100.38,27.28c1.27,0,2.24.36,2.97,1.04.92.85,1.27,2.12,1.39,3.63h-8.68c.13-1.51.47-2.77,1.39-3.63.73-.68,1.66-1.04,2.92-1.04Z"/><path class="cls-2" d="M149.75,35.77h2.86c.03-.56.05-1.14.05-1.76,0-4.04-.53-6.58-2.61-8.69-1.42-1.46-3.77-2.75-7.18-2.75s-5.71,1.29-7.13,2.75c-2.08,2.11-2.61,4.64-2.61,8.69s.53,6.62,2.61,8.73c1.42,1.46,3.72,2.75,7.13,2.75s5.76-1.29,7.18-2.75c1.11-1.12,1.77-2.38,2.15-3.92h-5.66c-.19.34-.41.65-.69.92-.73.68-1.7,1.04-2.97,1.04s-2.19-.36-2.92-1.04c-.98-.91-1.31-2.3-1.42-3.97h11.23ZM142.87,27.28c1.27,0,2.24.36,2.97,1.04.92.85,1.27,2.12,1.39,3.63h-8.68c.13-1.51.47-2.77,1.39-3.63.73-.68,1.66-1.04,2.92-1.04Z"/><path class="cls-2" d="M234.34,35.77h2.86c.03-.56.05-1.14.05-1.76,0-4.04-.53-6.58-2.61-8.69-1.42-1.46-3.77-2.75-7.18-2.75s-5.71,1.29-7.13,2.75c-2.08,2.11-2.61,4.64-2.61,8.69s.53,6.62,2.61,8.73c1.42,1.46,3.72,2.75,7.13,2.75s5.76-1.29,7.18-2.75c1.11-1.12,1.77-2.38,2.15-3.92h-5.66c-.19.34-.41.65-.69.92-.73.68-1.7,1.04-2.97,1.04s-2.19-.36-2.92-1.04c-.98-.91-1.31-2.3-1.42-3.97h11.23ZM227.45,27.28c1.27,0,2.24.36,2.97,1.04.92.85,1.27,2.12,1.39,3.63h-8.68c.13-1.51.47-2.77,1.39-3.63.73-.68,1.66-1.04,2.92-1.04Z"/><rect class="cls-2" x="113.72" y="15.87" width="5.59" height="29.36"/><rect class="cls-2" x="124.09" y="15.87" width="5.59" height="29.36"/><path class="cls-2" d="M191.02,22.27s-.04,0-.07,0c-1.79,0-3.25.47-4.37,1.41-.69.56-1.49,1.6-2.42,3.13v-3.99h-5.71v22.42h6.03v-10.94c0-1.83.23-2.72.69-3.6.83-1.57,2.44-2.35,4.85-2.35.18,0,.42,0,.71.02.08,0,.19.02.28.02v-6.11Z"/></svg>